# xmcd
#
# Track frame offsets:
#	182
#	11590
#	23047
#	36027
#	48607
#	61987
#	72385
#	83100
#	93590
#	106495
#	118990
#	131555
#
# Disc length: 1896 seconds
#
# Revision: 1
# Processed by: cddbd v1.5PL3 Copyright (c) Steve Scherf et al.
# Submitted via: MusicManager 7.0.4.0 
#
DISCID=a407660c
DTITLE=Brendan Shine - New roads
DYEAR=1992
DGENRE=Irsk
TTITLE0=This is my year for Mexico
TTITLE1=Roots of my raising
TTITLE2=What do I care
TTITLE3=Faster horses
TTITLE4=Sally G
TTITLE5=Down the wrong road again
TTITLE6=Loving you
TTITLE7=Susan when she tries
TTITLE8=That girl who waits on tables
TTITLE9=All my roads (lead back to you)
TTITLE10=I like beer
TTITLE11=Turn out the lights
EXTD=
EXTT0=
EXTT1=
EXTT2=
EXTT3=
EXTT4=
EXTT5=
EXTT6=
EXTT7=
EXTT8=
EXTT9=
EXTT10=
EXTT11=
PLAYORDER=
